:SAMPLES-PER-SECOND 30
:FRAME-RANGE 1-1390
:FULLY-SPECIFIED
:DEGREES
261
root  2.20054 37.6114 -66.1453 -4.67673 -38.6527 -3.27092
RightUpLeg  -82.1716 -16.3649 67.4124
RightLeg  122.503 5.05075 -6.6465
RightFoot  -30.9167 -0.886419 -3.91843
RightToes  6.35937e-011 1.2921e-014 -6.02303e-014
Spine  12.1956 -2.06625 5.39483
Spine1  -3.48946 0.583895 -2.12571
HEad  17.9214 9.53082 -3.31509
LeftShoulder1  3.47759 -10.9872 -17.9773
LeftArm  40.4113 -22.4061 -65.2563
LeftForeArm  31.5791 -3.00693 -18.0032
LeftHand  -0.0100563 6.32677 2.63131
RightShoulder  2.37876 6.13331 18.81
RightArm  2.13278 38.9575 88.4717
RightForeArm  107.129 -4.36531 7.91014
RightHand  0.828289 -16.6146 -9.13319
LeftUpLeg  -2.07715 -13.7643 -15.1115
LeftLeg  37.3872 1.95737 1.98552
LeftFoot  -16.836 0.677157 11.948
LeftToes  4.52251e-011 4.07896e-011 -5.42348e-012
262
root  1.11835 39.0033 -65.157 -4.69843 -36.0245 -3.77307
RightUpLeg  -84.358 -12.7759 66.5474
RightLeg  120.78 5.49468 -7.78695
RightFoot  -30.0581 -0.413031 -1.26706
RightToes  6.35937e-011 1.2921e-014 -6.02303e-014
Spine  12.2612 -2.63503 4.10957
Spine1  -4.59897 -0.244347 -0.880255
HEad  19.7425 8.05762 -2.33024
LeftShoulder1  3.61538 -11.5512 -17.9784
LeftArm  40.3396 -23.4334 -65.0681
LeftForeArm  32.1216 -3.00921 -17.9817
LeftHand  -0.012577 6.45615 2.23313
RightShoulder  2.29182 6.02432 18.1167
RightArm  2.4012 39.3626 88.4604
RightForeArm  102.923 -4.58788 8.06184
RightHand  0.73919 -16.1616 -8.57309
LeftUpLeg  0.751653 -12.0259 -12.9064
LeftLeg  34.7482 -2.97967 -1.8543
LeftFoot  -6.74066 -0.266031 7.62301
LeftToes  4.52251e-011 4.07896e-011 -5.42348e-012
263
root  0.163005 40.0441 -64.3286 -4.73438 -33.8351 -3.91323
RightUpLeg  -85.8704 -10.0742 65.6176
RightLeg  118.769 4.56668 -6.91273
RightFoot  -29.7444 0.00138672 1.25628
RightToes  6.35937e-011 1.2921e-014 -6.02303e-014
Spine  13.0667 -3.07714 3.17732
Spine1  -5.12723 -0.777944 -0.429776
HEad  19.4388 6.24139 -2.1516
LeftShoulder1  3.73636 -12.2143 -17.6924
LeftArm  36.7635 -24.5575 -64.4509
LeftForeArm  35.3693 -1.94836 -17.9447
LeftHand  -0.0117529 6.53507 2.14863
RightShoulder  2.18739 5.86848 17.3296
RightArm  3.10503 39.9954 88.5451
RightForeArm  98.4438 -4.85074 8.38795
RightHand  0.628625 -15.4075 -7.94494
LeftUpLeg  -0.953907 -9.85376 -10.2747
LeftLeg  37.8549 -6.27784 -4.84008
LeftFoot  2.05751 0.083856 -0.820149
LeftToes  4.52251e-011 4.07896e-011 -5.42348e-012
264
root  -0.712006 40.7423 -63.4991 -4.76305 -34.2271 -4.26909
RightUpLeg  -84.3554 -8.63166 64.9233
RightLeg  116.185 2.72155 -4.30596
RightFoot  -29.1043 0.351668 3.5157
RightToes  6.35937e-011 1.2921e-014 -6.02303e-014
Spine  14.5863 -3.05408 3.60673
Spine1  -5.18496 -0.566839 -1.42147
HEad  18.0293 5.14279 -2.85779
LeftShoulder1  3.72749 -12.1984 -17.6572
LeftArm  36.0271 -24.8591 -62.7519
LeftForeArm  35.1062 -1.68927 -17.9669
LeftHand  -0.0127855 6.32533 2.33998
RightShoulder  2.15764 6.03105 16.5307
RightArm  4.03705 40.6372 89.6876
RightForeArm  95.9072 -4.99908 8.57391
RightHand  0.605566 -15.0605 -7.94217
LeftUpLeg  -3.98146 -6.37565 -8.08451
LeftLeg  42.0108 -2.90779 -2.40619
LeftFoot  -1.99592 0.140934 -1.57749
LeftToes  4.52251e-011 4.07896e-011 -5.42348e-012
265
root  -1.53772 41.2355 -62.7054 -5.18157 -34.3654 -3.1381
RightUpLeg  -82.7689 -9.27421 63.7701
RightLeg  113.821 1.38284 -2.04225
RightFoot  -28.3796 0.520289 4.75919
RightToes  6.35937e-011 1.2921e-014 -6.02303e-014
Spine  17.1272 -3.16045 2.23802
Spine1  -6.27087 -0.73884 -2.26481
HEad  16.2977 3.93593 -3.11837
LeftShoulder1  3.64622 -11.795 -17.7726
LeftArm  34.0512 -24.8025 -60.6433
LeftForeArm  35.2623 -1.07507 -17.9742
LeftHand  0.0522627 7.34163 5.06869
RightShoulder  2.16364 6.13034 16.3356
RightArm  4.26729 39.8816 90.6693
RightForeArm  95.1571 -5.0554 8.7083
RightHand  0.679898 -15.0306 -8.82202
LeftUpLeg  -6.49664 -5.80234 -7.72007
LeftLeg  39.1481 -0.0156714 0.373117
LeftFoot  -7.83879 0.0537242 -0.216091
LeftToes  4.52251e-011 4.07896e-011 -5.42348e-012
266
root  -2.37574 41.4041 -61.9069 -4.28705 -33.122 -1.73911
RightUpLeg  -83.1889 -10.0887 62.2595
RightLeg  112.428 0.290074 0.211676
RightFoot  -27.7163 0.601607 5.48745
RightToes  6.35937e-011 1.2921e-014 -6.02303e-014
Spine  18.6541 -3.34622 -0.259678
Spine1  -7.53337 -1.31481 -1.8137
HEad  14.5125 2.52026 -3.29233
LeftShoulder1  3.60692 -11.7651 -17.542
LeftArm  30.1178 -25.0224 -59.791
LeftForeArm  39.6538 -0.0370893 -17.7693
LeftHand  -0.00639828 6.49295 2.69907
RightShoulder  2.17744 6.10725 16.5573
RightArm  4.66586 38.9146 90.814
RightForeArm  95.8329 -5.10072 9.19424
RightHand  0.754705 -15.0846 -9.63333
LeftUpLeg  -9.47131 -8.41211 -7.45307
LeftLeg  30.8054 2.81255 2.16909
LeftFoot  -13.3574 0.0819891 0.104049
LeftToes  4.52251e-011 4.07896e-011 -5.42348e-012
267
root  -3.16123 41.1038 -61.0681 -2.90627 -32.6513 -0.879125
RightUpLeg  -82.5564 -10.0684 61.5063
RightLeg  111.866 0.321163 0.139038
RightFoot  -28.7494 0.696731 5.82439
RightToes  6.35937e-011 1.2921e-014 -6.02303e-014
Spine  19.5111 -3.15729 -1.71891
Spine1  -8.08445 -1.28915 -1.77313
HEad  12.3423 0.946821 -3.10084
LeftShoulder1  3.55567 -11.9911 -16.7922
LeftArm  28.5738 -25.5763 -60.2581
LeftForeArm  42.0768 0.292595 -17.6484
LeftHand  -0.00694666 6.48383 2.66327
RightShoulder  2.21279 6.18302 16.7636
RightArm  4.34923 38.2677 90.3108
RightForeArm  94.6564 -5.17935 9.34513
RightHand  0.778786 -14.9673 -10.0224
LeftUpLeg  -13.1648 -12.7046 -6.15453
LeftLeg  23.3782 6.19286 3.27103
LeftFoot  -17.5958 0.0869934 -0.339524
LeftToes  4.52251e-011 4.07896e-011 -5.42348e-012
268
root  -3.9277 40.2395 -60.1777 -2.13703 -32.704 -0.295871
RightUpLeg  -81.9428 -10.0847 60.6089
RightLeg  112.56 0.747897 -0.790509
RightFoot  -28.1777 0.642623 5.63331
RightToes  6.35937e-011 1.2921e-014 -6.02303e-014
Spine  19.9817 -3.02595 -1.98032
Spine1  -7.44173 -1.12369 -2.68308
HEad  10.4549 -0.106378 -3.16132
LeftShoulder1  3.43444 -11.9166 -16.0485
LeftArm  29.7692 -25.3839 -60.774
LeftForeArm  40.2674 0.0383331 -17.7399
LeftHand  -0.00701279 6.41448 2.7802
RightShoulder  2.23845 6.38586 16.5223
RightArm  4.56285 38.3582 90.6352
RightForeArm  93.8724 -5.22088 9.37741
RightHand  0.751919 -14.7868 -9.88504
LeftUpLeg  -17.2007 -16.2077 -4.48499
LeftLeg  21.1316 9.06675 4.41448
LeftFoot  -19.546 0.142345 0.349434
LeftToes  4.52251e-011 4.07896e-011 -5.42348e-012
269
root  -4.69189 38.9512 -59.0383 -2.52488 -33.2944 -0.0914581
RightUpLeg  -80.5161 -10.5716 59.4541
RightLeg  114.767 1.57103 -2.32088
RightFoot  -28.3227 0.569327 5.1009
RightToes  6.35937e-011 1.2921e-014 -6.02303e-014
Spine  20.1466 -2.78073 -1.59887
Spine1  -6.49137 -0.691554 -3.15865
HEad  10.0202 -0.119729 -4.58774
LeftShoulder1  3.39202 -11.7659 -15.9884
LeftArm  31.4975 -23.7882 -61.3277
LeftForeArm  37.2167 -0.323889 -17.8819
LeftHand  -0.00825093 6.20811 3.10354
RightShoulder  2.26662 6.46086 16.6448
RightArm  4.98807 38.3527 90.5391
RightForeArm  94.163 -5.24769 9.63376
RightHand  0.74027 -14.6908 -9.84128
LeftUpLeg  -19.3114 -18.3615 -3.22304
LeftLeg  23.3404 7.99385 4.11185
LeftFoot  -17.6194 -0.0903748 -3.57265
LeftToes  4.52251e-011 4.07896e-011 -5.42348e-012
270
root  -5.44897 37.2509 -57.736 -4.66295 -33.5179 1.41185
RightUpLeg  -80.2019 -10.896 57.9861
RightLeg  118.75 4.03164 -6.03325
RightFoot  -28.4532 0.296946 3.25806
RightToes  6.35937e-011 1.2921e-014 -6.02303e-014
Spine  20.7673 -2.76479 -2.62396
Spine1  -6.30914 -0.853086 -2.85483
HEad  10.5363 0.805381 -5.31746
LeftShoulder1  3.2115 -11.327 -15.3802
LeftArm  37.5693 -22.6153 -62.6678
LeftForeArm  29.9878 -1.90571 -18.1617
LeftHand  0.05691 7.00243 6.24276
RightShoulder  2.23074 6.01692 17.4248
RightArm  4.90867 37.626 91.2857
RightForeArm  96.7208 -5.10268 9.47005
RightHand  0.765942 -15.3914 -9.48225
LeftUpLeg  -23.1174 -14.0217 -6.44317
LeftLeg  35.7527 3.31724 2.94895
LeftFoot  -9.83404 0.00890372 3.81992
LeftToes  4.52251e-011 4.07896e-011 -5.42348e-012
271
root  -6.25494 36.2283 -56.3814 -7.7424 -32.9922 3.28574
RightUpLeg  -79.3673 -13.2148 56.3971
RightLeg  121.07 7.53457 -10.7326
RightFoot  -29.1745 -0.242448 -0.282573
RightToes  6.35937e-011 1.2921e-014 -6.02303e-014
Spine  19.9488 -2.26346 -1.99537
Spine1  -3.57103 -0.0353599 -4.36973
HEad  10.839 0.452272 -6.35628
LeftShoulder1  3.33362 -11.6007 -15.8338
LeftArm  32.7461 -23.8469 -64.1158
LeftForeArm  35.4184 -0.602444 -17.9636
LeftHand  0.10707 7.82057 6.67372
RightShoulder  2.23609 6.00222 17.5284
RightArm  4.28812 37.8858 90.789
RightForeArm  101.457 -4.79281 8.91637
RightHand  0.879451 -15.8462 -10.3018
LeftUpLeg  -22.541 -13.8272 -9.91822
LeftLeg  44.0876 3.82779 4.39115
LeftFoot  -13.5082 0.184214 5.44029
LeftToes  4.52251e-011 4.07896e-011 -5.42348e-012
272
root  -7.17064 35.7889 -54.9748 -9.33475 -34.8654 4.25887
RightUpLeg  -77.5089 -12.7953 56.4354
RightLeg  122.628 9.16919 -12.3688
RightFoot  -30.1837 -0.376384 -1.03235
RightToes  6.35937e-011 1.2921e-014 -6.02303e-014
Spine  19.2929 -1.4896 -0.948443
Spine1  -3.70644 1.03083 -5.89272
HEad  12.9031 2.41634 -5.56024
LeftShoulder1  3.22758 -10.8821 -16.2582
LeftArm  29.5848 -23.6487 -64.5945
LeftForeArm  40.4291 0.181713 -17.7229
LeftHand  0.00130364 6.59142 3.2075
RightShoulder  2.35991 6.31064 18.0953
RightArm  3.14342 38.1798 91.1094
RightForeArm  105.774 -4.44733 8.02391
RightHand  0.892542 -16.4118 -9.93681
LeftUpLeg  -20.2774 -12.6703 -11.64
LeftLeg  48.2296 4.59059 5.94399
LeftFoot  -18.5812 0.413319 4.76488
LeftToes  4.52251e-011 4.07896e-011 -5.42348e-012
273
root  -8.17337 36.0652 -53.7343 -8.91755 -34.501 3.47116
RightUpLeg  -78.1994 -12.3294 58.0491
RightLeg  123.227 8.19961 -10.7929
RightFoot  -29.7803 -0.168486 0.208473
RightToes  6.35937e-011 1.2921e-014 -6.02303e-014
Spine  17.9564 -1.48814 -0.747932
Spine1  -4.26307 0.878617 -4.96047
HEad  14.4545 3.84033 -4.26525
LeftShoulder1  3.1248 -10.5615 -16.0246
LeftArm  37.9782 -22.2134 -65.0016
LeftForeArm  31.9797 -2.10165 -18.0691
LeftHand  0.0927241 7.63538 6.45908
RightShoulder  2.42062 6.38776 18.5643
RightArm  2.74471 37.7014 90.0854
RightForeArm  106.148 -4.45936 8.20969
RightHand  0.901967 -16.4068 -10.036
LeftUpLeg  -16.7996 -12.2287 -11.4327
LeftLeg  47.5546 4.37867 5.56328
LeftFoot  -20.7181 0.502766 4.60914
LeftToes  4.52251e-011 4.07896e-011 -5.42348e-012
